<mxfile host="65bd71144e">
    <diagram id="EalB78_fZiW9EppdnVym" name="第1頁">
        <mxGraphModel dx="1352" dy="779" grid="1" gridSize="10" guides="1" tooltips="1" connect="1" arrows="1" fold="1" page="1" pageScale="1" pageWidth="827" pageHeight="1169" math="0" shadow="0">
            <root>
                <mxCell id="0"/>
                <mxCell id="1" parent="0"/>
                <mxCell id="2" value="&lt;font color=&quot;#000000&quot; style=&quot;font-size: 18px;&quot;&gt;社區大樓管理APP&lt;/font&gt;" style="swimlane;whiteSpace=wrap;html=1;fillColor=#eeeeee;strokeColor=#FFFFFF;" vertex="1" parent="1">
                    <mxGeometry x="200" y="40" width="410" height="710" as="geometry"/>
                </mxCell>
                <mxCell id="16" value="使用APP新增或編輯使用者資料" style="rounded=1;whiteSpace=wrap;html=1;fontSize=15;" vertex="1" parent="2">
                    <mxGeometry x="154" y="60" width="120" height="60" as="geometry"/>
                </mxCell>
                <mxCell id="18" value="使用APP查看或發布社區公告" style="rounded=1;whiteSpace=wrap;html=1;fontSize=15;" vertex="1" parent="2">
                    <mxGeometry x="154" y="150" width="120" height="60" as="geometry"/>
                </mxCell>
                <mxCell id="19" value="使用APP提供個人意見及想法，或是獲得反饋" style="rounded=1;whiteSpace=wrap;html=1;fontSize=15;" vertex="1" parent="2">
                    <mxGeometry x="154" y="240" width="120" height="60" as="geometry"/>
                </mxCell>
                <mxCell id="20" value="使用APP查看包裹是否送達" style="rounded=1;whiteSpace=wrap;html=1;fontSize=15;" vertex="1" parent="2">
                    <mxGeometry x="154" y="330" width="120" height="60" as="geometry"/>
                </mxCell>
                <mxCell id="21" value="使用APP查看時間與住戶地址" style="rounded=1;whiteSpace=wrap;html=1;fontSize=15;" vertex="1" parent="2">
                    <mxGeometry x="154" y="420" width="120" height="60" as="geometry"/>
                </mxCell>
                <mxCell id="22" value="讓警衛進行簽收" style="rounded=1;whiteSpace=wrap;html=1;fontSize=15;" vertex="1" parent="2">
                    <mxGeometry x="154" y="510" width="120" height="60" as="geometry"/>
                </mxCell>
                <mxCell id="23" value="APP提供是否有異常或是更新通知需要驅動" style="rounded=1;whiteSpace=wrap;html=1;fontSize=15;" vertex="1" parent="2">
                    <mxGeometry x="154" y="600" width="120" height="60" as="geometry"/>
                </mxCell>
                <mxCell id="43" style="edgeStyle=none;html=1;exitX=1;exitY=0.5;exitDx=0;exitDy=0;entryX=0;entryY=0.5;entryDx=0;entryDy=0;fontSize=15;strokeColor=#000000;" edge="1" parent="1" source="24" target="16">
                    <mxGeometry relative="1" as="geometry"/>
                </mxCell>
                <mxCell id="44" style="edgeStyle=none;html=1;exitX=1;exitY=0.5;exitDx=0;exitDy=0;entryX=0;entryY=0.5;entryDx=0;entryDy=0;fontSize=15;strokeColor=#000000;" edge="1" parent="1" source="24" target="18">
                    <mxGeometry relative="1" as="geometry"/>
                </mxCell>
                <mxCell id="45" style="edgeStyle=none;html=1;exitX=1;exitY=0.5;exitDx=0;exitDy=0;entryX=0;entryY=0.5;entryDx=0;entryDy=0;fontSize=15;strokeColor=#000000;" edge="1" parent="1" source="24" target="19">
                    <mxGeometry relative="1" as="geometry"/>
                </mxCell>
                <mxCell id="46" style="edgeStyle=none;html=1;exitX=1;exitY=0.5;exitDx=0;exitDy=0;entryX=0;entryY=0.5;entryDx=0;entryDy=0;fontSize=15;strokeColor=#000000;" edge="1" parent="1" source="24" target="20">
                    <mxGeometry relative="1" as="geometry"/>
                </mxCell>
                <mxCell id="24" value="&lt;span style=&quot;font-size: 20px;&quot;&gt;&lt;font color=&quot;#000000&quot;&gt;住戶&lt;/font&gt;&lt;/span&gt;" style="ellipse;whiteSpace=wrap;html=1;fontSize=15;fillColor=#cce5ff;strokeColor=#36393d;" vertex="1" parent="1">
                    <mxGeometry x="40" y="80" width="120" height="80" as="geometry"/>
                </mxCell>
                <mxCell id="47" style="edgeStyle=none;html=1;exitX=1;exitY=0.5;exitDx=0;exitDy=0;entryX=0;entryY=0.5;entryDx=0;entryDy=0;fontSize=15;strokeColor=#000000;" edge="1" parent="1" source="25" target="19">
                    <mxGeometry relative="1" as="geometry"/>
                </mxCell>
                <mxCell id="48" style="edgeStyle=none;html=1;exitX=1;exitY=0.5;exitDx=0;exitDy=0;entryX=0;entryY=0.5;entryDx=0;entryDy=0;fontSize=15;strokeColor=#000000;" edge="1" parent="1" source="25" target="20">
                    <mxGeometry relative="1" as="geometry"/>
                </mxCell>
                <mxCell id="49" style="edgeStyle=none;html=1;exitX=1;exitY=0.5;exitDx=0;exitDy=0;entryX=0;entryY=0.5;entryDx=0;entryDy=0;fontSize=15;strokeColor=#000000;" edge="1" parent="1" source="25" target="21">
                    <mxGeometry relative="1" as="geometry"/>
                </mxCell>
                <mxCell id="25" value="&lt;span style=&quot;font-size: 20px;&quot;&gt;&lt;font color=&quot;#000000&quot;&gt;郵差&lt;/font&gt;&lt;/span&gt;" style="ellipse;whiteSpace=wrap;html=1;fontSize=15;fillColor=#cce5ff;strokeColor=#36393d;" vertex="1" parent="1">
                    <mxGeometry x="40" y="320" width="120" height="80" as="geometry"/>
                </mxCell>
                <mxCell id="38" style="edgeStyle=none;html=1;exitX=1;exitY=0.5;exitDx=0;exitDy=0;entryX=0;entryY=0.5;entryDx=0;entryDy=0;fontSize=15;strokeColor=#000000;" edge="1" parent="1" source="26" target="22">
                    <mxGeometry relative="1" as="geometry"/>
                </mxCell>
                <mxCell id="42" style="edgeStyle=none;html=1;exitX=1;exitY=0.5;exitDx=0;exitDy=0;entryX=0;entryY=0.5;entryDx=0;entryDy=0;fontSize=15;strokeColor=#000000;" edge="1" parent="1" source="26" target="20">
                    <mxGeometry relative="1" as="geometry"/>
                </mxCell>
                <mxCell id="26" value="&lt;span style=&quot;font-size: 20px;&quot;&gt;&lt;font color=&quot;#000000&quot;&gt;警衛&lt;/font&gt;&lt;/span&gt;" style="ellipse;whiteSpace=wrap;html=1;fontSize=15;fillColor=#cce5ff;strokeColor=#36393d;" vertex="1" parent="1">
                    <mxGeometry x="40" y="600" width="120" height="80" as="geometry"/>
                </mxCell>
                <mxCell id="39" style="edgeStyle=none;html=1;exitX=0;exitY=0.5;exitDx=0;exitDy=0;entryX=1;entryY=0.5;entryDx=0;entryDy=0;fontSize=15;strokeColor=#000000;" edge="1" parent="1" source="27" target="18">
                    <mxGeometry relative="1" as="geometry"/>
                </mxCell>
                <mxCell id="27" value="&lt;span style=&quot;font-size: 20px;&quot;&gt;&lt;font color=&quot;#000000&quot;&gt;委員&lt;/font&gt;&lt;/span&gt;" style="ellipse;whiteSpace=wrap;html=1;fontSize=15;fillColor=#cce5ff;strokeColor=#36393d;" vertex="1" parent="1">
                    <mxGeometry x="640" y="200" width="120" height="80" as="geometry"/>
                </mxCell>
                <mxCell id="40" style="edgeStyle=none;html=1;exitX=0;exitY=0.5;exitDx=0;exitDy=0;entryX=1;entryY=0.5;entryDx=0;entryDy=0;fontSize=15;strokeColor=#000000;" edge="1" parent="1" source="28" target="19">
                    <mxGeometry relative="1" as="geometry"/>
                </mxCell>
                <mxCell id="41" style="edgeStyle=none;html=1;exitX=0;exitY=0.5;exitDx=0;exitDy=0;entryX=1;entryY=0.5;entryDx=0;entryDy=0;fontSize=15;strokeColor=#000000;" edge="1" parent="1" source="28" target="23">
                    <mxGeometry relative="1" as="geometry"/>
                </mxCell>
                <mxCell id="28" value="&lt;span style=&quot;font-size: 20px;&quot;&gt;&lt;font color=&quot;#000000&quot;&gt;APP開發員&lt;/font&gt;&lt;/span&gt;" style="ellipse;whiteSpace=wrap;html=1;fontSize=15;fillColor=#cce5ff;strokeColor=#36393d;" vertex="1" parent="1">
                    <mxGeometry x="640" y="470" width="120" height="80" as="geometry"/>
                </mxCell>
            </root>
        </mxGraphModel>
    </diagram>
</mxfile>